# xmcd
#
# Track frame offsets: 
#        150
#        11295
#        31297
#        44757
#        60967
#        78587
#        91994
#        107316
#        121038
#        135003
#        149210
#        167794
#        185566
#        202125
#        214239
#        226767
#
# Disc length: 3219 seconds
#
# Revision: 0
# Processed by: cddbd v1.5.2PL0 Copyright (c) Steve Scherf et al.
# Submitted via: ExactAudioCopyFreeDBPlugin 1.0
#
DISCID=d30c9110
DTITLE=Isla Grant - Early Memories
DYEAR=1900
DGENRE=
TTITLE0=Listen to the Children
TTITLE1=It's been along time
TTITLE2=Mother's Chair
TTITLE3=God Please Forgive Me
TTITLE4=Mother
TTITLE5=The Keeper of my Heart
TTITLE6=Life's StoryBook Cover
TTITLE7=The Ghosts of Culloden
TTITLE8=There's Nothing New I'm Missing You
TTITLE9=Like Leaves in the Wind
TTITLE10=Cottage in the Country
TTITLE11=Dark Deep Rolling Water
TTITLE12=Scotland You Are in my Heart Forever
TTITLE13=Precious Lord Please Lead Me
TTITLE14=Till the Day that He Met You
TTITLE15=My Homeland
EXTD=
EXTT0=
EXTT1=
EXTT2=
EXTT3=
EXTT4=
EXTT5=
EXTT6=
EXTT7=
EXTT8=
EXTT9=
EXTT10=
EXTT11=
EXTT12=
EXTT13=
EXTT14=
EXTT15=
PLAYORDER=
